<svg width="132" height="25" viewBox="0 0 132 25" fill="none" xmlns="http://www.w3.org/2000/svg">
<mask id="path-1-outside-1_238_147" maskUnits="userSpaceOnUse" x="0" y="-0.5" width="132" height="26" fill="black">
<rect fill="white" y="-0.5" width="132" height="26"/>
<path d="M11.564 19.5H7.364V4.52H0.392V0.74H18.536V4.52H11.564V19.5ZM22.9539 19.78C19.9299 19.78 18.1099 18.38 18.1099 16.028C18.1099 13.956 19.6499 12.668 22.6459 12.36L28.6659 11.744V11.212C28.6659 9.392 27.8539 8.888 25.6139 8.888C23.4859 8.888 22.6179 9.448 22.6179 11.044V11.156H18.3899V11.072C18.3899 7.6 21.3019 5.192 25.9219 5.192C30.5979 5.192 32.8099 7.6 32.8099 11.268V19.5H28.8899V16.28H28.6659C28.0219 18.464 26.0619 19.78 22.9539 19.78ZM22.3379 15.748C22.3379 16.504 22.9259 16.812 24.1579 16.812C27.0139 16.812 28.5539 16.14 28.6659 14.152L23.7939 14.712C22.7859 14.796 22.3379 15.076 22.3379 15.748ZM41.0148 19.78C36.2268 19.78 33.0068 16.924 33.0068 12.5C33.0068 8.02 36.2268 5.192 41.0148 5.192C45.8028 5.192 49.0228 8.02 49.0228 12.5C49.0228 16.924 45.8028 19.78 41.0148 19.78ZM41.0148 16.056C43.8428 16.056 44.8508 14.964 44.8508 12.5C44.8508 10.036 43.8428 8.888 41.0148 8.888C38.1588 8.888 37.1788 10.036 37.1788 12.5C37.1788 14.964 38.1588 16.056 41.0148 16.056ZM53.538 19.5H49.338V0.74H53.538V8.188H63.338V0.74H67.538V19.5H63.338V11.968H53.538V19.5ZM75.8671 19.78C71.0791 19.78 67.8591 16.924 67.8591 12.5C67.8591 8.02 71.0791 5.192 75.8671 5.192C80.6551 5.192 83.8751 8.02 83.8751 12.5C83.8751 16.924 80.6551 19.78 75.8671 19.78ZM75.8671 16.056C78.6951 16.056 79.7031 14.964 79.7031 12.5C79.7031 10.036 78.6951 8.888 75.8671 8.888C73.0111 8.888 72.0311 10.036 72.0311 12.5C72.0311 14.964 73.0111 16.056 75.8671 16.056ZM91.6663 19.78C86.8783 19.78 83.6583 16.924 83.6583 12.5C83.6583 8.02 86.8783 5.192 91.6663 5.192C96.4543 5.192 99.6743 8.02 99.6743 12.5C99.6743 16.924 96.4543 19.78 91.6663 19.78ZM91.6663 16.056C94.4943 16.056 95.5023 14.964 95.5023 12.5C95.5023 10.036 94.4943 8.888 91.6663 8.888C88.8103 8.888 87.8303 10.036 87.8303 12.5C87.8303 14.964 88.8103 16.056 91.6663 16.056ZM104.19 24.26H99.9895V5.472H103.882V9.308H104.162C104.666 6.62 106.458 5.192 109.762 5.192C114.074 5.192 116.482 8.048 116.482 12.5C116.482 16.952 114.13 19.78 109.902 19.78C106.654 19.78 104.862 18.184 104.386 15.72H104.19V24.26ZM104.19 12.696C104.19 15.104 105.646 15.944 108.278 15.944C110.966 15.944 112.226 15.048 112.226 12.5C112.226 9.924 110.966 9.056 108.306 9.056C105.59 9.056 104.19 9.98 104.19 12.472V12.696ZM123.912 19.78C119.18 19.78 116.576 17.932 116.576 14.684V14.6H120.776V14.852C120.776 16.112 121.56 16.448 123.94 16.448C126.18 16.448 126.712 16.084 126.712 15.244C126.712 14.46 126.292 14.236 124.64 14.012L120.692 13.536C117.892 13.228 116.324 11.968 116.324 9.616C116.324 7.152 118.424 5.192 123.24 5.192C127.832 5.192 130.436 6.928 130.436 10.344V10.428H126.236V10.26C126.236 9.112 125.676 8.524 123.1 8.524C121 8.524 120.468 8.888 120.468 9.784C120.468 10.512 120.86 10.82 122.708 11.044L125.704 11.408C129.456 11.828 130.856 13.088 130.856 15.412C130.856 18.044 128.252 19.78 123.912 19.78Z"/>
</mask>
<path d="M11.564 19.5H7.364V4.52H0.392V0.74H18.536V4.52H11.564V19.5ZM22.9539 19.78C19.9299 19.78 18.1099 18.38 18.1099 16.028C18.1099 13.956 19.6499 12.668 22.6459 12.36L28.6659 11.744V11.212C28.6659 9.392 27.8539 8.888 25.6139 8.888C23.4859 8.888 22.6179 9.448 22.6179 11.044V11.156H18.3899V11.072C18.3899 7.6 21.3019 5.192 25.9219 5.192C30.5979 5.192 32.8099 7.6 32.8099 11.268V19.5H28.8899V16.28H28.6659C28.0219 18.464 26.0619 19.78 22.9539 19.78ZM22.3379 15.748C22.3379 16.504 22.9259 16.812 24.1579 16.812C27.0139 16.812 28.5539 16.14 28.6659 14.152L23.7939 14.712C22.7859 14.796 22.3379 15.076 22.3379 15.748ZM41.0148 19.78C36.2268 19.78 33.0068 16.924 33.0068 12.5C33.0068 8.02 36.2268 5.192 41.0148 5.192C45.8028 5.192 49.0228 8.02 49.0228 12.5C49.0228 16.924 45.8028 19.78 41.0148 19.78ZM41.0148 16.056C43.8428 16.056 44.8508 14.964 44.8508 12.5C44.8508 10.036 43.8428 8.888 41.0148 8.888C38.1588 8.888 37.1788 10.036 37.1788 12.5C37.1788 14.964 38.1588 16.056 41.0148 16.056ZM53.538 19.5H49.338V0.74H53.538V8.188H63.338V0.74H67.538V19.5H63.338V11.968H53.538V19.5ZM75.8671 19.78C71.0791 19.78 67.8591 16.924 67.8591 12.5C67.8591 8.02 71.0791 5.192 75.8671 5.192C80.6551 5.192 83.8751 8.02 83.8751 12.5C83.8751 16.924 80.6551 19.78 75.8671 19.78ZM75.8671 16.056C78.6951 16.056 79.7031 14.964 79.7031 12.5C79.7031 10.036 78.6951 8.888 75.8671 8.888C73.0111 8.888 72.0311 10.036 72.0311 12.5C72.0311 14.964 73.0111 16.056 75.8671 16.056ZM91.6663 19.78C86.8783 19.78 83.6583 16.924 83.6583 12.5C83.6583 8.02 86.8783 5.192 91.6663 5.192C96.4543 5.192 99.6743 8.02 99.6743 12.5C99.6743 16.924 96.4543 19.78 91.6663 19.78ZM91.6663 16.056C94.4943 16.056 95.5023 14.964 95.5023 12.5C95.5023 10.036 94.4943 8.888 91.6663 8.888C88.8103 8.888 87.8303 10.036 87.8303 12.5C87.8303 14.964 88.8103 16.056 91.6663 16.056ZM104.19 24.26H99.9895V5.472H103.882V9.308H104.162C104.666 6.62 106.458 5.192 109.762 5.192C114.074 5.192 116.482 8.048 116.482 12.5C116.482 16.952 114.13 19.78 109.902 19.78C106.654 19.78 104.862 18.184 104.386 15.72H104.19V24.26ZM104.19 12.696C104.19 15.104 105.646 15.944 108.278 15.944C110.966 15.944 112.226 15.048 112.226 12.5C112.226 9.924 110.966 9.056 108.306 9.056C105.59 9.056 104.19 9.98 104.19 12.472V12.696ZM123.912 19.78C119.18 19.78 116.576 17.932 116.576 14.684V14.6H120.776V14.852C120.776 16.112 121.56 16.448 123.94 16.448C126.18 16.448 126.712 16.084 126.712 15.244C126.712 14.46 126.292 14.236 124.64 14.012L120.692 13.536C117.892 13.228 116.324 11.968 116.324 9.616C116.324 7.152 118.424 5.192 123.24 5.192C127.832 5.192 130.436 6.928 130.436 10.344V10.428H126.236V10.26C126.236 9.112 125.676 8.524 123.1 8.524C121 8.524 120.468 8.888 120.468 9.784C120.468 10.512 120.86 10.82 122.708 11.044L125.704 11.408C129.456 11.828 130.856 13.088 130.856 15.412C130.856 18.044 128.252 19.78 123.912 19.78Z" fill="white"/>
<path d="M11.564 19.5V19.7733H11.8373V19.5H11.564ZM7.364 19.5H7.0907V19.7733H7.364V19.5ZM7.364 4.52H7.6373V4.2467H7.364V4.52ZM0.392 4.52H0.1187V4.7933H0.392V4.52ZM0.392 0.74V0.4667H0.1187V0.74H0.392ZM18.536 0.74H18.8093V0.4667H18.536V0.74ZM18.536 4.52V4.7933H18.8093V4.52H18.536ZM11.564 4.52V4.2467H11.2907V4.52H11.564ZM11.564 19.2267H7.364V19.7733H11.564V19.2267ZM7.6373 19.5V4.52H7.0907V19.5H7.6373ZM7.364 4.2467H0.392V4.7933H7.364V4.2467ZM0.6653 4.52V0.74H0.1187V4.52H0.6653ZM0.392 1.0133H18.536V0.4667H0.392V1.0133ZM18.2627 0.74V4.52H18.8093V0.74H18.2627ZM18.536 4.2467H11.564V4.7933H18.536V4.2467ZM11.2907 4.52V19.5H11.8373V4.52H11.2907ZM22.6459 12.36L22.6181 12.0881L22.6179 12.0881L22.6459 12.36ZM28.6659 11.744L28.6937 12.0159L28.9392 11.9908V11.744H28.6659ZM22.6179 11.156V11.4293H22.8912V11.156H22.6179ZM18.3899 11.156H18.1166V11.4293H18.3899V11.156ZM32.8099 19.5V19.7733H33.0832V19.5H32.8099ZM28.8899 19.5H28.6166V19.7733H28.8899V19.5ZM28.8899 16.28H29.1632V16.0067H28.8899V16.28ZM28.6659 16.28V16.0067H28.4615L28.4037 16.2027L28.6659 16.28ZM28.6659 14.152L28.9387 14.1674L28.957 13.8434L28.6347 13.8805L28.6659 14.152ZM23.7939 14.712L23.8166 14.9845L23.8251 14.9835L23.7939 14.712ZM22.9539 19.5067C21.4798 19.5067 20.335 19.165 19.565 18.5698C18.8039 17.9814 18.3832 17.1258 18.3832 16.028H17.8366C17.8366 17.2822 18.3258 18.3026 19.2307 19.0022C20.1268 19.695 21.4039 20.0533 22.9539 20.0533V19.5067ZM18.3832 16.028C18.3832 15.0687 18.7354 14.3085 19.4271 13.7443C20.1296 13.1713 21.2044 12.7829 22.6738 12.6319L22.6179 12.0881C21.0914 12.2451 19.8982 12.6547 19.0816 13.3207C18.2544 13.9955 17.8366 14.9153 17.8366 16.028H18.3832ZM22.6737 12.6319L28.6937 12.0159L28.6381 11.4721L22.6181 12.0881L22.6737 12.6319ZM28.9392 11.744V11.212H28.3926V11.744H28.9392ZM28.9392 11.212C28.9392 10.2686 28.729 9.57706 28.1413 9.14696C27.5803 8.73639 26.7351 8.6147 25.6139 8.6147V9.1613C26.7327 9.1613 27.4134 9.29161 27.8185 9.58804C28.1968 9.86494 28.3926 10.3354 28.3926 11.212H28.9392ZM25.6139 8.6147C24.5406 8.6147 23.7172 8.75276 23.1607 9.14391C22.5783 9.55331 22.3446 10.1955 22.3446 11.044H22.8912C22.8912 10.2965 23.0915 9.86069 23.475 9.59109C23.8846 9.30324 24.5591 9.1613 25.6139 9.1613V8.6147ZM22.3446 11.044V11.156H22.8912V11.044H22.3446ZM22.6179 10.8827H18.3899V11.4293H22.6179V10.8827ZM18.6632 11.156V11.072H18.1166V11.156H18.6632ZM18.6632 11.072C18.6632 9.41953 19.353 8.02832 20.5933 7.04408C21.8388 6.05563 23.6569 5.4653 25.9219 5.4653V4.9187C23.5668 4.9187 21.6189 5.53236 20.2535 6.61592C18.8828 7.70368 18.1166 9.25246 18.1166 11.072H18.6632ZM25.9219 5.4653C28.2155 5.4653 29.8617 6.05562 30.933 7.0544C32.0017 8.05076 32.5366 9.4894 32.5366 11.268H33.0832C33.0832 9.3786 32.512 7.77924 31.3057 6.6546C30.102 5.53238 28.3043 4.9187 25.9219 4.9187V5.4653ZM32.5366 11.268V19.5H33.0832V11.268H32.5366ZM32.8099 19.2267H28.8899V19.7733H32.8099V19.2267ZM29.1632 19.5V16.28H28.6166V19.5H29.1632ZM28.8899 16.0067H28.6659V16.5533H28.8899V16.0067ZM28.4037 16.2027C28.1 17.2327 27.4895 18.052 26.5886 18.6175C25.6838 19.1855 24.4708 19.5067 22.9539 19.5067V20.0533C24.5449 20.0533 25.8659 19.7165 26.8792 19.0805C27.8963 18.442 28.5877 17.5113 28.928 16.3573L28.4037 16.2027ZM22.0646 15.748C22.0646 15.9726 22.1084 16.1811 22.2095 16.3649C22.3114 16.55 22.4623 16.6937 22.6506 16.801C23.0156 17.0089 23.5304 17.0853 24.1579 17.0853V16.5387C23.5533 16.5387 23.1581 16.4611 22.9212 16.326C22.8084 16.2618 22.7354 16.1867 22.6885 16.1014C22.6408 16.0149 22.6112 15.9014 22.6112 15.748H22.0646ZM24.1579 17.0853C25.5964 17.0853 26.7537 16.9181 27.5728 16.4669C28.4194 16.0004 28.878 15.2456 28.9387 14.1674L28.393 14.1366C28.3418 15.0464 27.9743 15.6216 27.309 15.9881C26.616 16.3699 25.5753 16.5387 24.1579 16.5387V17.0853ZM28.6347 13.8805L23.7627 14.4405L23.8251 14.9835L28.6971 14.4235L28.6347 13.8805ZM23.7712 14.4396C23.2568 14.4825 22.8321 14.5776 22.5325 14.7847C22.2073 15.0094 22.0646 15.3398 22.0646 15.748H22.6112C22.6112 15.4842 22.6925 15.3386 22.8433 15.2343C23.0197 15.1124 23.3229 15.0255 23.8166 14.9844L23.7712 14.4396ZM41.0148 19.5067C38.6743 19.5067 36.7421 18.8092 35.3984 17.5961C34.0575 16.3856 33.2801 14.6419 33.2801 12.5H32.7335C32.7335 14.7821 33.566 16.6784 35.0321 18.0019C36.4954 19.3228 38.5672 20.0533 41.0148 20.0533V19.5067ZM33.2801 12.5C33.2801 10.3292 34.058 8.57884 35.3984 7.36886C36.7417 6.15621 38.6736 5.4653 41.0148 5.4653V4.9187C38.5679 4.9187 36.4958 5.64178 35.0321 6.96313C33.5655 8.28715 32.7335 10.1908 32.7335 12.5H33.2801ZM41.0148 5.4653C43.3559 5.4653 45.2878 6.15621 46.6311 7.36886C47.9715 8.57884 48.7495 10.3292 48.7495 12.5H49.2961C49.2961 10.1908 48.4641 8.28715 46.9974 6.96313C45.5337 5.64178 43.4616 4.9187 41.0148 4.9187V5.4653ZM48.7495 12.5C48.7495 14.6419 47.9721 16.3856 46.6311 17.5961C45.2874 18.8092 43.3552 19.5067 41.0148 19.5067V20.0533C43.4623 20.0533 45.5341 19.3228 46.9974 18.0019C48.4635 16.6784 49.2961 14.7821 49.2961 12.5H48.7495ZM41.0148 16.3293C42.4534 16.3293 43.5006 16.0535 44.1825 15.3992C44.8676 14.7418 45.1241 13.7606 45.1241 12.5H44.5775C44.5775 13.7034 44.3299 14.5002 43.804 15.0048C43.275 15.5125 42.4041 15.7827 41.0148 15.7827V16.3293ZM45.1241 12.5C45.1241 11.2392 44.8675 10.2459 44.1848 9.57506C43.5036 8.90572 42.4564 8.6147 41.0148 8.6147V9.1613C42.4011 9.1613 43.2719 9.44428 43.8017 9.96493C44.33 10.4841 44.5775 11.2968 44.5775 12.5H45.1241ZM41.0148 8.6147C39.5599 8.6147 38.5118 8.90538 37.8336 9.57562C37.1542 10.2471 36.9055 11.2409 36.9055 12.5H37.4521C37.4521 11.2951 37.6933 10.4829 38.2179 9.96438C38.7437 9.44462 39.6136 9.1613 41.0148 9.1613V8.6147ZM36.9055 12.5C36.9055 13.7589 37.1541 14.7406 37.836 15.3987C38.5148 16.0539 39.5629 16.3293 41.0148 16.3293V15.7827C39.6106 15.7827 38.7407 15.5121 38.2155 15.0053C37.6934 14.5014 37.4521 13.7051 37.4521 12.5H36.9055ZM53.538 19.5V19.7733H53.8113V19.5H53.538ZM49.338 19.5H49.0647V19.7733H49.338V19.5ZM49.338 0.74V0.4667H49.0647V0.74H49.338ZM53.538 0.74H53.8113V0.4667H53.538V0.74ZM53.538 8.188H53.2647V8.4613H53.538V8.188ZM63.338 8.188V8.4613H63.6113V8.188H63.338ZM63.338 0.74V0.4667H63.0647V0.74H63.338ZM67.538 0.74H67.8113V0.4667H67.538V0.74ZM67.538 19.5V19.7733H67.8113V19.5H67.538ZM63.338 19.5H63.0647V19.7733H63.338V19.5ZM63.338 11.968H63.6113V11.6947H63.338V11.968ZM53.538 11.968V11.6947H53.2647V11.968H53.538ZM53.538 19.2267H49.338V19.7733H53.538V19.2267ZM49.6113 19.5V0.74H49.0647V19.5H49.6113ZM49.338 1.0133H53.538V0.4667H49.338V1.0133ZM53.2647 0.74V8.188H53.8113V0.74H53.2647ZM53.538 8.4613H63.338V7.9147H53.538V8.4613ZM63.6113 8.188V0.74H63.0647V8.188H63.6113ZM63.338 1.0133H67.538V0.4667H63.338V1.0133ZM67.2647 0.74V19.5H67.8113V0.74H67.2647ZM67.538 19.2267H63.338V19.7733H67.538V19.2267ZM63.6113 19.5V11.968H63.0647V19.5H63.6113ZM63.338 11.6947H53.538V12.2413H63.338V11.6947ZM53.2647 11.968V19.5H53.8113V11.968H53.2647ZM75.8671 19.5067C73.5267 19.5067 71.5944 18.8092 70.2507 17.5961C68.9098 16.3856 68.1324 14.6419 68.1324 12.5H67.5858C67.5858 14.7821 68.4184 16.6784 69.8845 18.0019C71.3477 19.3228 73.4195 20.0533 75.8671 20.0533V19.5067ZM68.1324 12.5C68.1324 10.3292 68.9104 8.57884 70.2507 7.36886C71.594 6.15621 73.526 5.4653 75.8671 5.4653V4.9187C73.4202 4.9187 71.3482 5.64178 69.8845 6.96313C68.4178 8.28715 67.5858 10.1908 67.5858 12.5H68.1324ZM75.8671 5.4653C78.2082 5.4653 80.1402 6.15621 81.4835 7.36886C82.8238 8.57884 83.6018 10.3292 83.6018 12.5H84.1484C84.1484 10.1908 83.3164 8.28715 81.8497 6.96313C80.386 5.64178 78.314 4.9187 75.8671 4.9187V5.4653ZM83.6018 12.5C83.6018 14.6419 82.8244 16.3856 81.4835 17.5961C80.1397 18.8092 78.2075 19.5067 75.8671 19.5067V20.0533C78.3147 20.0533 80.3864 19.3228 81.8497 18.0019C83.3158 16.6784 84.1484 14.7821 84.1484 12.5H83.6018ZM75.8671 16.3293C77.3058 16.3293 78.3529 16.0535 79.0348 15.3992C79.7199 14.7418 79.9764 13.7606 79.9764 12.5H79.4298C79.4298 13.7034 79.1822 14.5002 78.6564 15.0048C78.1273 15.5125 77.2564 15.7827 75.8671 15.7827V16.3293ZM79.9764 12.5C79.9764 11.2392 79.7199 10.2459 79.0372 9.57506C78.356 8.90572 77.3088 8.6147 75.8671 8.6147V9.1613C77.2534 9.1613 78.1242 9.44428 78.654 9.96493C79.1823 10.4841 79.4298 11.2968 79.4298 12.5H79.9764ZM75.8671 8.6147C74.4122 8.6147 73.3641 8.90538 72.686 9.57562C72.0066 10.2471 71.7578 11.2409 71.7578 12.5H72.3044C72.3044 11.2951 72.5456 10.4829 73.0702 9.96438C73.5961 9.44462 74.466 9.1613 75.8671 9.1613V8.6147ZM71.7578 12.5C71.7578 13.7589 72.0065 14.7406 72.6883 15.3987C73.3672 16.0539 74.4152 16.3293 75.8671 16.3293V15.7827C74.463 15.7827 73.593 15.5121 73.0679 15.0053C72.5457 14.5014 72.3044 13.7051 72.3044 12.5H71.7578ZM91.6663 19.5067C89.3259 19.5067 87.3937 18.8092 86.0499 17.5961C84.709 16.3856 83.9316 14.6419 83.9316 12.5H83.385C83.385 14.7821 84.2176 16.6784 85.6837 18.0019C87.147 19.3228 89.2187 20.0533 91.6663 20.0533V19.5067ZM83.9316 12.5C83.9316 10.3292 84.7096 8.57884 86.0499 7.36886C87.3932 6.15621 89.3252 5.4653 91.6663 5.4653V4.9187C89.2194 4.9187 87.1474 5.64178 85.6837 6.96313C84.217 8.28715 83.385 10.1908 83.385 12.5H83.9316ZM91.6663 5.4653C94.0074 5.4653 95.9394 6.15621 97.2827 7.36886C98.623 8.57884 99.401 10.3292 99.401 12.5H99.9476C99.9476 10.1908 99.1156 8.28715 97.6489 6.96313C96.1852 5.64178 94.1132 4.9187 91.6663 4.9187V5.4653ZM99.401 12.5C99.401 14.6419 98.6236 16.3856 97.2827 17.5961C95.939 18.8092 94.0067 19.5067 91.6663 19.5067V20.0533C94.1139 20.0533 96.1857 19.3228 97.6489 18.0019C99.115 16.6784 99.9476 14.7821 99.9476 12.5H99.401ZM91.6663 16.3293C93.105 16.3293 94.1521 16.0535 94.834 15.3992C95.5192 14.7418 95.7756 13.7606 95.7756 12.5H95.229C95.229 13.7034 94.9815 14.5002 94.4556 15.0048C93.9265 15.5125 93.0556 15.7827 91.6663 15.7827V16.3293ZM95.7756 12.5C95.7756 11.2392 95.5191 10.2459 94.8364 9.57506C94.1552 8.90572 93.108 8.6147 91.6663 8.6147V9.1613C93.0526 9.1613 93.9234 9.44428 94.4533 9.96493C94.9815 10.4841 95.229 11.2968 95.229 12.5H95.7756ZM91.6663 8.6147C90.2114 8.6147 89.1633 8.90538 88.4852 9.57562C87.8058 10.2471 87.557 11.2409 87.557 12.5H88.1036C88.1036 11.2951 88.3448 10.4829 88.8694 9.96438C89.3953 9.44462 90.2652 9.1613 91.6663 9.1613V8.6147ZM87.557 12.5C87.557 13.7589 87.8057 14.7406 88.4875 15.3987C89.1664 16.0539 90.2144 16.3293 91.6663 16.3293V15.7827C90.2622 15.7827 89.3922 15.5121 88.8671 15.0053C88.3449 14.5014 88.1036 13.7051 88.1036 12.5H87.557ZM104.19 24.26V24.5333H104.463V24.26H104.19ZM99.9895 24.26H99.7162V24.5333H99.9895V24.26ZM99.9895 5.472V5.1987H99.7162V5.472H99.9895ZM103.882 5.472H104.155V5.1987H103.882V5.472ZM103.882 9.308H103.608V9.5813H103.882V9.308ZM104.162 9.308V9.5813H104.388L104.43 9.35837L104.162 9.308ZM104.386 15.72L104.654 15.6682L104.611 15.4467H104.386V15.72ZM104.19 15.72V15.4467H103.916V15.72H104.19ZM104.19 23.9867H99.9895V24.5333H104.19V23.9867ZM100.263 24.26V5.472H99.7162V24.26H100.263ZM99.9895 5.7453H103.882V5.1987H99.9895V5.7453ZM103.608 5.472V9.308H104.155V5.472H103.608ZM103.882 9.5813H104.162V9.0347H103.882V9.5813ZM104.43 9.35837C104.673 8.06536 105.218 7.10369 106.076 6.46064C106.937 5.81451 108.146 5.4653 109.762 5.4653V4.9187C108.073 4.9187 106.734 5.28349 105.748 6.02336C104.757 6.76631 104.154 7.86264 103.893 9.25763L104.43 9.35837ZM109.762 5.4653C111.854 5.4653 113.455 6.15615 114.535 7.35911C115.619 8.56615 116.208 10.3211 116.208 12.5H116.755C116.755 10.2269 116.14 8.32785 114.942 6.99389C113.74 5.65585 111.981 4.9187 109.762 4.9187V5.4653ZM116.208 12.5C116.208 14.6804 115.632 16.4288 114.572 17.6285C113.516 18.8235 111.951 19.5067 109.902 19.5067V20.0533C112.08 20.0533 113.805 19.3225 114.982 17.9905C116.155 16.6632 116.755 14.7716 116.755 12.5H116.208ZM109.902 19.5067C108.322 19.5067 107.125 19.1189 106.271 18.4579C105.419 17.7982 104.881 16.8465 104.654 15.6682L104.117 15.7718C104.366 17.0575 104.962 18.1358 105.937 18.8901C106.91 19.6431 108.233 20.0533 109.902 20.0533V19.5067ZM104.386 15.4467H104.19V15.9933H104.386V15.4467ZM103.916 15.72V24.26H104.463V15.72H103.916ZM103.916 12.696C103.916 13.9584 104.301 14.8656 105.084 15.443C105.849 16.0066 106.943 16.2173 108.278 16.2173V15.6707C106.98 15.6707 106.03 15.4614 105.409 15.003C104.806 14.5583 104.463 13.8416 104.463 12.696H103.916ZM108.278 16.2173C109.64 16.2173 110.708 15.9927 111.434 15.3875C112.173 14.772 112.499 13.8151 112.499 12.5H111.952C111.952 13.7329 111.648 14.498 111.085 14.9675C110.509 15.4473 109.603 15.6707 108.278 15.6707V16.2173ZM112.499 12.5C112.499 11.1718 112.174 10.2144 111.438 9.60195C110.715 8.9999 109.653 8.7827 108.306 8.7827V9.3293C109.618 9.3293 110.516 9.5461 111.088 10.022C111.647 10.4876 111.952 11.2522 111.952 12.5H112.499ZM108.306 8.7827C106.927 8.7827 105.822 9.01508 105.06 9.61471C104.283 10.2261 103.916 11.1743 103.916 12.472H104.463C104.463 11.2777 104.796 10.5179 105.398 10.0443C106.015 9.55892 106.968 9.3293 108.306 9.3293V8.7827ZM103.916 12.472V12.696H104.463V12.472H103.916ZM116.576 14.6V14.3267H116.303V14.6H116.576ZM120.776 14.6H121.049V14.3267H120.776V14.6ZM124.64 14.012L124.677 13.7411L124.673 13.7407L124.64 14.012ZM120.692 13.536L120.725 13.2647L120.722 13.2643L120.692 13.536ZM130.436 10.428V10.7013H130.709V10.428H130.436ZM126.236 10.428H125.963V10.7013H126.236V10.428ZM122.708 11.044L122.741 10.7727L122.741 10.7727L122.708 11.044ZM125.704 11.408L125.671 11.6793L125.673 11.6796L125.704 11.408ZM123.912 19.5067C121.575 19.5067 119.805 19.0494 118.626 18.226C117.461 17.4121 116.849 16.2241 116.849 14.684H116.303C116.303 16.3919 116.993 17.7519 118.313 18.674C119.619 19.5866 121.516 20.0533 123.912 20.0533V19.5067ZM116.849 14.684V14.6H116.303V14.684H116.849ZM116.576 14.8733H120.776V14.3267H116.576V14.8733ZM120.503 14.6V14.852H121.049V14.6H120.503ZM120.503 14.852C120.503 15.193 120.555 15.4992 120.694 15.761C120.836 16.028 121.055 16.2258 121.345 16.368C121.903 16.6409 122.755 16.7213 123.94 16.7213V16.1747C122.745 16.1747 122.015 16.0871 121.585 15.877C121.382 15.7777 121.257 15.6552 121.177 15.5049C121.094 15.3493 121.049 15.141 121.049 14.852H120.503ZM123.94 16.7213C125.059 16.7213 125.809 16.6331 126.283 16.4079C126.53 16.2905 126.715 16.1307 126.832 15.9196C126.948 15.7124 126.985 15.4809 126.985 15.244H126.439C126.439 15.4271 126.409 15.5561 126.355 15.6534C126.303 15.7468 126.214 15.8355 126.049 15.9141C125.697 16.0809 125.061 16.1747 123.94 16.1747V16.7213ZM126.985 15.244C126.985 15.0261 126.956 14.8193 126.866 14.6332C126.774 14.4419 126.628 14.2957 126.433 14.182C126.067 13.968 125.493 13.8519 124.677 13.7412L124.603 14.2828C125.438 14.3961 125.901 14.504 126.157 14.654C126.274 14.7223 126.337 14.7931 126.374 14.8713C126.415 14.9547 126.439 15.0699 126.439 15.244H126.985ZM124.673 13.7407L120.725 13.2647L120.659 13.8073L124.607 14.2833L124.673 13.7407ZM120.722 13.2643C119.351 13.1136 118.321 12.7333 117.638 12.1366C116.963 11.5483 116.597 10.7249 116.597 9.616H116.051C116.051 10.8591 116.468 11.8417 117.278 12.5484C118.078 13.2467 119.232 13.6504 120.662 13.8077L120.722 13.2643ZM116.597 9.616C116.597 8.47135 117.08 7.44906 118.134 6.70305C119.198 5.94958 120.864 5.4653 123.24 5.4653V4.9187C120.8 4.9187 119.008 5.41442 117.818 6.25695C116.617 7.10694 116.051 8.29665 116.051 9.616H116.597ZM123.24 5.4653C125.508 5.4653 127.243 5.89528 128.403 6.71059C129.547 7.51521 130.163 8.71554 130.163 10.344H130.709C130.709 8.55645 130.022 7.18078 128.717 6.2634C127.427 5.35672 125.563 4.9187 123.24 4.9187V5.4653ZM130.163 10.344V10.428H130.709V10.344H130.163ZM130.436 10.1547H126.236V10.7013H130.436V10.1547ZM126.509 10.428V10.26H125.963V10.428H126.509ZM126.509 10.26C126.509 9.95331 126.472 9.66034 126.359 9.39684C126.244 9.12755 126.056 8.90395 125.779 8.73014C125.246 8.39477 124.392 8.2507 123.1 8.2507V8.7973C124.384 8.7973 125.098 8.94723 125.488 9.19286C125.674 9.30955 125.787 9.4482 125.857 9.61203C125.929 9.78166 125.963 9.99269 125.963 10.26H126.509ZM123.1 8.2507C122.051 8.2507 121.332 8.33863 120.872 8.57486C120.631 8.6985 120.453 8.866 120.341 9.08373C120.231 9.29646 120.195 9.5352 120.195 9.784H120.741C120.741 9.5848 120.771 9.44204 120.827 9.33452C120.88 9.232 120.966 9.1405 121.121 9.06114C121.452 8.89137 122.049 8.7973 123.1 8.7973V8.2507ZM120.195 9.784C120.195 9.98849 120.222 10.1902 120.312 10.3762C120.405 10.5665 120.553 10.7173 120.755 10.8378C121.14 11.0669 121.754 11.2037 122.675 11.3153L122.741 10.7727C121.813 10.6603 121.308 10.5311 121.035 10.3682C120.908 10.2927 120.842 10.216 120.804 10.1368C120.763 10.0533 120.741 9.94351 120.741 9.784H120.195ZM122.675 11.3153L125.671 11.6793L125.737 11.1367L122.741 10.7727L122.675 11.3153ZM125.673 11.6796C127.533 11.8877 128.758 12.3 129.516 12.9091C130.255 13.5034 130.583 14.3121 130.583 15.412H131.129C131.129 14.1879 130.756 13.2046 129.858 12.4829C128.978 11.776 127.627 11.3483 125.734 11.1364L125.673 11.6796ZM130.583 15.412C130.583 16.6232 129.989 17.6334 128.864 18.3527C127.729 19.0783 126.05 19.5067 123.912 19.5067V20.0533C126.113 20.0533 127.906 19.6137 129.159 18.8133C130.42 18.0066 131.129 16.8328 131.129 15.412H130.583Z" fill="white" mask="url(#path-1-outside-1_238_147)"/>
</svg>
